<svg xmlns="http://www.w3.org/2000/svg" aria-hidden="true" style="position:absolute;width:0;height:0;overflow:hidden"><defs><symbol id="icon-Form" viewBox="0 0 29 32"><path fill="#fff" d="M.164.327c0-.12.098-.218.218-.218H28.73c.12 0 .218.098.218.218v31.237c0 .12-.098.218-.218.218H.382a.219.219 0 0 1-.218-.218V.327z" style="fill:var(--color1, #fff)"/><path fill="#212121" d="M4.218 3.143h.391v.128h-.59v-.094l.383-.552h-.383v-.129H4.6v.092l-.382.555zm.479-.165c0-.057.011-.108.033-.153s.054-.079.095-.104a.276.276 0 0 1 .144-.037c.078 0 .141.024.19.071s.077.112.082.194l.001.039c0 .088-.025.159-.074.213s-.116.08-.199.08-.149-.027-.199-.08a.309.309 0 0 1-.074-.217v-.007zm.154.011c0 .055.01.097.031.126s.05.043.088.043c.037 0 .066-.014.087-.043s.031-.075.031-.137c0-.054-.01-.095-.031-.125s-.05-.044-.088-.044c-.038 0-.067.015-.087.044s-.031.074-.031.136zm.831.123c0-.019-.009-.034-.028-.044s-.048-.021-.089-.029c-.137-.029-.205-.087-.205-.175 0-.051.021-.094.063-.128s.098-.052.167-.052c.073 0 .131.017.175.052s.066.079.066.134h-.154c0-.022-.007-.04-.021-.054s-.036-.022-.067-.022c-.026 0-.046.006-.06.018s-.021.027-.021.045c0 .017.008.031.024.042s.044.019.082.027a.557.557 0 0 1 .097.026c.081.03.122.081.122.155 0 .053-.022.095-.068.128s-.103.048-.175.048c-.048 0-.091-.009-.129-.026s-.067-.041-.088-.071a.168.168 0 0 1-.032-.097h.146c.001.027.012.048.03.063s.044.022.076.022c.029 0 .052-.006.067-.017s.023-.026.023-.044zm.466-.559v.142h.098v.113h-.098v.287c0 .021.004.037.012.046s.024.014.047.014a.203.203 0 0 0 .045-.004v.117a.322.322 0 0 1-.093.014c-.108 0-.163-.054-.165-.163v-.31H5.91v-.113h.084v-.142h.154zm.551.718a.169.169 0 0 1-.015-.052.184.184 0 0 1-.145.062c-.056 0-.103-.016-.141-.049s-.055-.074-.055-.123c0-.061.023-.108.068-.141s.111-.049.196-.05h.071v-.033c0-.027-.007-.048-.021-.064s-.035-.024-.064-.024c-.026 0-.046.006-.061.019s-.022.029-.022.051h-.154c0-.033.01-.064.031-.093s.05-.051.087-.067a.323.323 0 0 1 .127-.025c.071 0 .127.018.169.054s.063.086.063.15v.25c0 .055.008.096.023.124v.009h-.155zm-.127-.107c.023 0 .044-.005.063-.015s.033-.024.043-.041v-.099H6.62c-.077 0-.118.027-.123.08l-.001.009c0 .019.007.035.02.047s.032.019.055.019zm.911-.102.076-.367h.149l-.147.576h-.129l-.109-.363-.109.363h-.128l-.147-.576h.149l.075.366.105-.366h.111l.105.367zm.95.05c0-.019-.009-.034-.028-.044s-.048-.021-.089-.029c-.137-.029-.206-.087-.206-.175 0-.051.021-.094.063-.128s.098-.052.167-.052c.073 0 .132.017.175.052s.066.079.066.134h-.154c0-.022-.007-.04-.021-.054s-.036-.022-.067-.022c-.026 0-.046.006-.06.018s-.021.027-.021.045c0 .017.008.031.024.042s.044.019.082.027a.557.557 0 0 1 .097.026c.081.03.122.081.122.155 0 .053-.023.095-.068.128s-.103.048-.175.048c-.048 0-.091-.009-.129-.026s-.066-.041-.088-.071a.168.168 0 0 1-.032-.097h.146c.001.027.011.048.03.063s.044.022.076.022c.03 0 .052-.006.067-.017s.023-.026.023-.044zm.783-.05.076-.367h.149l-.147.576h-.129l-.109-.363-.109.363h-.128l-.147-.576h.149l.075.366.105-.366h.111l.105.367zm.309-.084c0-.057.011-.108.033-.153s.054-.079.095-.104a.276.276 0 0 1 .144-.037c.078 0 .141.024.19.071s.077.112.083.194l.001.039c0 .088-.025.159-.074.213s-.116.08-.199.08-.149-.027-.199-.08-.074-.126-.074-.217v-.007zm.154.011c0 .055.01.097.031.126s.05.043.088.043c.037 0 .066-.014.087-.043s.031-.075.031-.137c0-.054-.01-.095-.031-.125s-.05-.044-.088-.044c-.038 0-.067.015-.087.044s-.031.074-.031.136zm.682-.294v.607c0 .064-.017.113-.051.148s-.082.053-.146.053a.31.31 0 0 1-.076-.009v-.122a.313.313 0 0 0 .048.005c.046 0 .07-.025.07-.074v-.608h.154zm-.166-.149c0-.023.008-.042.023-.057s.037-.022.063-.022c.027 0 .048.007.063.022s.023.034.023.057-.008.043-.024.058-.036.022-.062.022c-.026 0-.047-.007-.063-.022s-.023-.034-.023-.058zm.584.735c-.084 0-.153-.026-.207-.078s-.079-.121-.079-.207v-.015c0-.058.011-.11.034-.155a.249.249 0 0 1 .236-.142c.079 0 .141.025.186.075s.068.12.068.211v.063h-.367c.005.038.02.068.045.091s.057.034.095.034a.166.166 0 0 0 .139-.064l.076.085c-.023.033-.054.058-.094.077s-.083.027-.131.027zm-.017-.472c-.031 0-.055.01-.075.031s-.031.05-.036.088h.214v-.012c-.001-.034-.01-.06-.028-.079s-.043-.028-.076-.028zm.655.17c0-.09.02-.161.06-.215s.096-.08.166-.08c.056 0 .102.021.139.063v-.294h.154v.818h-.139l-.007-.061a.18.18 0 0 1-.148.072c-.068 0-.122-.027-.164-.08s-.061-.128-.061-.223zm.154.011c0 .054.009.095.028.124s.046.043.082.043c.048 0 .081-.02.101-.06V2.87c-.019-.04-.052-.06-.1-.06-.074 0-.111.06-.111.18zm.851.281a.169.169 0 0 1-.015-.052.184.184 0 0 1-.145.062c-.056 0-.103-.016-.141-.049s-.055-.074-.055-.123c0-.061.023-.108.068-.141s.111-.049.196-.05h.071v-.033c0-.027-.007-.048-.021-.064s-.035-.024-.064-.024c-.026 0-.046.006-.061.019s-.022.029-.022.051h-.154c0-.033.01-.064.031-.093s.05-.051.087-.067a.323.323 0 0 1 .127-.025c.071 0 .127.018.169.054s.063.086.063.15v.25c0 .055.008.096.023.124v.009h-.155zm-.127-.107c.023 0 .044-.005.063-.015s.033-.024.043-.041v-.099h-.057c-.077 0-.118.027-.123.08l-.001.009c0 .019.007.035.02.047s.032.019.055.019zm.552-.469.005.067a.202.202 0 0 1 .166-.077c.061 0 .106.018.136.054s.045.089.046.161v.372h-.154v-.368c0-.033-.007-.056-.021-.071s-.038-.022-.071-.022a.104.104 0 0 0-.097.055v.406h-.154v-.576h.145zm.767.586c-.084 0-.153-.026-.207-.078s-.079-.121-.079-.207v-.015c0-.058.011-.11.034-.155a.249.249 0 0 1 .236-.142c.079 0 .141.025.186.075s.068.12.068.211v.063h-.367c.005.038.02.068.045.091s.057.034.095.034a.166.166 0 0 0 .139-.064l.076.085c-.023.033-.054.058-.094.077s-.083.027-.131.027zm-.017-.472c-.031 0-.055.01-.075.031s-.031.05-.036.088h.214v-.012c-.001-.034-.01-.06-.028-.079s-.043-.028-.076-.028zm1.18.253.076-.367h.149l-.147.576h-.129l-.109-.363-.109.363h-.128l-.147-.576h.149l.075.366.105-.366h.111l.105.367zm.68.209v-.463h-.086v-.113h.086v-.049c0-.065.018-.115.055-.15s.089-.054.156-.054a.37.37 0 0 1 .078.011l-.002.119a.205.205 0 0 0-.047-.005c-.058 0-.087.027-.087.081v.046h.114v.113h-.114v.463h-.154zm.357-.293c0-.057.011-.108.033-.153s.054-.079.095-.104a.273.273 0 0 1 .144-.037c.078 0 .141.024.19.071s.077.112.083.194l.001.039c0 .088-.025.159-.074.213s-.116.08-.199.08-.149-.027-.199-.08-.074-.126-.074-.217v-.007zm.154.011c0 .055.01.097.031.126s.05.043.088.043c.037 0 .066-.014.087-.043s.031-.075.031-.137c0-.054-.01-.095-.031-.125s-.05-.044-.088-.044c-.038 0-.067.015-.087.044s-.031.074-.031.136zm.843-.15a.384.384 0 0 0-.055-.004c-.058 0-.096.02-.114.059v.377h-.154v-.576h.145l.004.069c.031-.053.074-.079.128-.079a.15.15 0 0 1 .048.007l-.002.148zm.252-.144.005.064a.203.203 0 0 1 .166-.075c.074 0 .125.029.153.088a.196.196 0 0 1 .173-.088c.062 0 .109.018.139.055s.046.091.046.164v.368h-.154v-.367c0-.033-.006-.056-.019-.071s-.035-.023-.068-.023c-.046 0-.078.022-.096.066l.001.396h-.154v-.367c0-.033-.007-.058-.02-.072s-.035-.022-.067-.022a.1.1 0 0 0-.095.054v.407h-.154v-.576h.144zm1.177.517a.193.193 0 0 1-.158.069c-.062 0-.109-.018-.142-.053s-.049-.087-.05-.156v-.377h.154v.372c0 .06.027.09.082.09.052 0 .088-.018.108-.054v-.408h.154v.576h-.145l-.004-.059zm.461.059h-.154v-.818h.154v.818zm.493 0a.169.169 0 0 1-.015-.052.184.184 0 0 1-.145.062c-.056 0-.103-.016-.141-.049s-.055-.074-.055-.123c0-.061.023-.108.068-.141s.111-.049.196-.05h.071v-.033c0-.027-.007-.048-.021-.064s-.035-.024-.064-.024c-.026 0-.046.006-.061.019s-.022.029-.022.051h-.154c0-.033.01-.064.031-.093s.05-.051.087-.067a.323.323 0 0 1 .127-.025c.071 0 .127.018.169.054s.063.086.063.15v.25c0 .055.008.096.023.124v.009h-.155zm-.127-.107c.023 0 .044-.005.063-.015s.033-.024.043-.041v-.099h-.057c-.077 0-.118.027-.123.08l-.001.009c0 .019.007.035.02.047s.032.019.055.019zm.734-.325a.384.384 0 0 0-.055-.004c-.058 0-.096.02-.114.059v.377h-.154v-.576h.145l.004.069c.031-.053.074-.079.128-.079a.15.15 0 0 1 .048.007l-.002.148zm.284.308h.282v.124h-.478v-.094l.271-.358h-.263v-.125h.462v.091l-.273.361zm.756.065a.193.193 0 0 1-.158.069c-.062 0-.109-.018-.142-.053s-.049-.087-.05-.156v-.377h.154v.372c0 .06.027.09.082.09.052 0 .088-.018.108-.054v-.408h.154v.576h-.145l-.004-.059zm1.121-.224c0 .089-.02.16-.061.213s-.094.08-.163.08a.178.178 0 0 1-.141-.061v.272h-.154v-.797h.143l.005.056a.18.18 0 0 1 .146-.067c.071 0 .126.026.166.079s.059.125.059.217v.008zm-.154-.011c0-.054-.01-.095-.029-.124s-.046-.044-.083-.044c-.048 0-.081.018-.1.055V3.1c.019.038.052.057.101.057.073 0 .11-.06.11-.18zm.258.001c0-.057.011-.108.033-.153s.054-.079.095-.104a.276.276 0 0 1 .144-.037c.078 0 .141.024.19.071s.077.112.083.194l.001.039c0 .088-.025.159-.074.213s-.116.08-.199.08-.149-.027-.199-.08-.074-.126-.074-.217v-.007zm.154.011c0 .055.01.097.031.126s.05.043.088.043c.037 0 .066-.014.087-.043s.031-.075.031-.137c0-.054-.01-.095-.031-.125s-.05-.044-.088-.044c-.038 0-.067.015-.087.044s-.031.074-.031.136zm.661-.294.005.067a.202.202 0 0 1 .166-.077c.061 0 .107.018.136.054s.045.089.046.161v.372h-.154v-.368c0-.033-.007-.056-.021-.071s-.038-.022-.071-.022a.104.104 0 0 0-.097.055v.406h-.154v-.576h.145zm.665.576h-.154v-.576h.154v.576zm-.164-.725c0-.023.008-.042.023-.057s.037-.022.063-.022c.026 0 .047.007.063.022s.023.034.023.057-.008.043-.024.058-.036.022-.062.022-.047-.007-.063-.022a.075.075 0 0 1-.023-.058zm.5.601h.282v.124h-.478v-.094l.271-.358h-.263v-.125h.462v.091l-.273.361zm.042-.69c.024 0 .044.007.058.021s.021.031.021.052-.007.039-.021.052c-.014.014-.033.02-.058.02s-.043-.007-.058-.02c-.014-.013-.021-.031-.021-.052s.007-.039.021-.052a.081.081 0 0 1 .058-.021zm.626.824c-.084 0-.153-.026-.207-.078s-.079-.121-.079-.207v-.015c0-.058.011-.11.034-.155a.249.249 0 0 1 .236-.142c.079 0 .141.025.186.075s.068.12.068.211v.063h-.367c.005.038.02.068.045.091s.057.034.095.034a.166.166 0 0 0 .139-.064l.076.085c-.023.033-.054.058-.094.077s-.083.027-.131.027zm-.018-.472c-.031 0-.055.01-.075.031s-.031.05-.036.088h.214v-.012c-.001-.034-.01-.06-.028-.079s-.043-.028-.076-.028zm.538-.114v.607c0 .064-.017.113-.051.148s-.082.053-.146.053a.31.31 0 0 1-.076-.009v-.122a.313.313 0 0 0 .048.005c.047 0 .07-.025.07-.074v-.608h.154zm-.167-.149c0-.023.008-.042.023-.057s.037-.022.063-.022c.027 0 .048.007.063.022s.023.034.023.057-.008.043-.024.058-.036.022-.062.022c-.026 0-.047-.007-.063-.022s-.023-.034-.023-.058z" style="fill:var(--color2, #212121)"/><path fill="#757575" d="M2.464 4.797h-.061v-.465h.061v.465zm.165-.345.002.038a.128.128 0 0 1 .103-.045c.048 0 .081.019.099.056.011-.017.026-.03.045-.04s.04-.015.065-.015c.076 0 .114.04.116.12v.232H3V4.57c0-.025-.006-.043-.017-.055s-.03-.019-.057-.019c-.022 0-.04.007-.055.02s-.023.031-.025.053v.229h-.059v-.226c0-.05-.025-.075-.074-.075-.039 0-.065.016-.08.05v.252h-.059v-.346h.056zm.589.345h-.059v-.346h.059v.346zm-.064-.437c0-.01.003-.018.009-.024s.015-.01.026-.01.02.003.026.01c.006.007.009.015.009.024s-.003.018-.009.024c-.006.006-.015.01-.026.01s-.02-.003-.026-.01a.032.032 0 0 1-.009-.024zm.309.444c-.047 0-.085-.015-.114-.046s-.044-.072-.044-.124v-.011c0-.034.006-.065.019-.092a.147.147 0 0 1 .132-.086c.045 0 .08.015.105.044s.037.072.037.127v.025h-.234c.001.034.011.062.03.083s.043.031.073.031c.021 0 .039-.004.053-.013s.027-.02.038-.034l.036.028a.144.144 0 0 1-.13.067zm-.007-.31c-.024 0-.044.009-.06.026s-.026.042-.03.073h.173v-.004c-.002-.03-.01-.053-.024-.07s-.034-.025-.059-.025z" style="fill:var(--color3, #757575)"/><path fill="#2196f3" d="M3.489 6.269a.164.164 0 1 0 0-.328.164.164 0 0 0 0 .328zm0 .082c-.109 0-.327.055-.327.164v.041c0 .022.018.041.041.041h.572a.041.041 0 0 0 .041-.041v-.041c0-.109-.218-.164-.327-.164z" style="fill:var(--color4, #2196f3)"/><path fill="#757575" d="M2.719 8.09h-.15v.415h-.061V8.09h-.149v-.05h.36v.05zm.178.421c-.047 0-.085-.015-.114-.046s-.044-.072-.044-.124V8.33c0-.034.006-.065.019-.092a.147.147 0 0 1 .132-.086c.045 0 .08.015.105.044s.037.072.037.127v.025h-.234c.001.034.011.062.03.083s.043.031.073.031c.021 0 .039-.004.053-.013s.027-.02.038-.034l.036.028a.146.146 0 0 1-.13.067zm-.007-.31c-.024 0-.044.009-.06.026s-.026.042-.03.073h.173v-.004c-.002-.03-.01-.053-.024-.07s-.034-.025-.059-.025zm.281.303h-.059v-.491h.059v.491zm.245.007c-.047 0-.085-.015-.114-.046s-.044-.072-.044-.124V8.33c0-.034.006-.065.019-.092a.147.147 0 0 1 .132-.086c.045 0 .08.015.105.044s.037.072.037.127v.025h-.234c.001.034.011.062.03.083s.043.031.073.031c.021 0 .039-.004.053-.013s.027-.02.038-.034l.036.028a.146.146 0 0 1-.13.067zm-.007-.31c-.024 0-.044.009-.06.026s-.026.042-.03.073h.173v-.004c-.002-.03-.01-.053-.024-.07s-.034-.025-.059-.025zm.246.303v-.3H3.6v-.046h.055v-.035c0-.037.01-.066.03-.086s.048-.03.084-.03c.014 0 .027.002.041.005l-.003.048a.166.166 0 0 0-.032-.003c-.019 0-.034.006-.044.017s-.016.027-.016.048v.036h.074v.046h-.074v.3h-.059zm.19-.176c0-.034.007-.064.02-.091a.15.15 0 0 1 .137-.085c.047 0 .085.016.114.049s.044.076.044.13v.004c0 .034-.006.064-.019.091a.144.144 0 0 1-.137.084c-.047 0-.085-.016-.114-.049s-.043-.076-.043-.129v-.004zm.059.007c0 .038.009.069.026.092s.042.035.072.035c.03 0 .054-.012.072-.035s.027-.057.027-.099c0-.038-.009-.069-.027-.092s-.042-.035-.072-.035c-.029 0-.053.012-.071.035s-.027.056-.027.1zm.392-.176.002.043a.127.127 0 0 1 .104-.05c.073 0 .11.041.111.124v.228h-.059v-.229c0-.025-.006-.043-.017-.055s-.028-.018-.052-.018c-.019 0-.036.005-.05.015s-.026.024-.034.04v.246h-.059v-.346h.056z" style="fill:var(--color3, #757575)"/><path fill="#212121" d="m3.761 10.092-.1-.011a.078.078 0 0 0-.065.022l-.073.073a.594.594 0 0 1-.26-.26l.073-.073a.078.078 0 0 0 .022-.065l-.011-.099a.08.08 0 0 0-.079-.07H3.2a.078.078 0 0 0-.079.082.67.67 0 0 0 .627.627.078.078 0 0 0 .082-.079v-.068c0-.04-.03-.073-.069-.078z" style="fill:var(--color2, #212121)"/><path fill="#757575" d="M2.661 11.996h-.202v.165h.234v.05h-.295v-.465h.292v.05h-.231v.149h.202v.05zm.162-.13.002.038a.126.126 0 0 1 .103-.045c.048 0 .081.019.099.056.011-.017.026-.03.045-.04s.04-.015.065-.015c.076 0 .114.04.116.12v.232h-.059v-.228c0-.025-.006-.043-.017-.055s-.03-.019-.057-.019c-.022 0-.04.007-.055.02s-.023.031-.025.053v.229h-.059v-.226c0-.05-.025-.075-.074-.075-.039 0-.065.017-.08.05v.252h-.059v-.346h.056zm.738.345a.14.14 0 0 1-.008-.036.133.133 0 0 1-.098.043c-.034 0-.062-.01-.084-.029s-.033-.044-.033-.073c0-.036.014-.064.041-.084s.066-.03.116-.03h.058v-.027c0-.021-.006-.037-.019-.049s-.031-.019-.055-.019c-.021 0-.039.005-.053.016s-.021.024-.021.039h-.059c0-.017.006-.034.018-.05s.029-.029.05-.038a.174.174 0 0 1 .069-.014c.04 0 .071.01.094.03s.034.047.035.082v.159c0 .032.004.057.012.076v.005h-.062zm-.098-.045c.019 0 .036-.005.053-.014s.029-.022.036-.037v-.071h-.046c-.072 0-.109.021-.109.064 0 .019.006.033.019.043s.028.016.048.016zm.311.045h-.059v-.346h.059v.346zm-.064-.437c0-.01.003-.018.009-.024s.015-.01.026-.01.02.003.026.01c.006.007.009.015.009.024s-.003.018-.009.024-.015.01-.026.01-.02-.003-.026-.01-.009-.014-.009-.024zm.23.437h-.059v-.491h.059v.491z" style="fill:var(--color3, #757575)"/><path fill="#212121" d="M3.816 13.356h-.654a.082.082 0 0 0-.081.082v.491c0 .045.037.082.082.082h.654a.082.082 0 0 0 .082-.082v-.491a.082.082 0 0 0-.082-.082zm-.016.174-.289.181a.042.042 0 0 1-.043 0l-.289-.181a.036.036 0 0 1-.016-.029c0-.027.03-.044.053-.03l.274.171.274-.171a.035.035 0 0 1 .053.03.034.034 0 0 1-.016.029z" style="fill:var(--color2, #212121)"/><path fill="#757575" d="m3.371 17.407.009.061.013-.055.092-.325h.052l.09.325.013.056.01-.063.072-.318h.062l-.113.465h-.056l-.096-.339-.007-.035-.007.035-.099.339H3.35l-.112-.465h.061l.073.318zm.769-.022c0 .053-.012.095-.036.127s-.057.048-.098.048a.125.125 0 0 1-.099-.04v.166h-.059v-.479h.054l.003.038a.122.122 0 0 1 .1-.045c.042 0 .074.016.098.047s.036.075.036.131v.005zm-.059-.007c0-.039-.008-.07-.025-.092s-.039-.034-.068-.034a.085.085 0 0 0-.08.048v.165a.087.087 0 0 0 .081.047c.028 0 .051-.011.067-.034s.025-.056.025-.1zm.308-.117c-.009-.002-.019-.002-.029-.002-.039 0-.065.017-.079.049v.245h-.059v-.346h.058l.001.04a.091.091 0 0 1 .082-.046c.011 0 .02.001.026.004v.055zm.039.117c0-.034.007-.064.02-.091a.15.15 0 0 1 .137-.085c.047 0 .085.016.114.049s.044.076.044.13v.004c0 .034-.006.064-.019.091a.144.144 0 0 1-.137.084c-.047 0-.085-.016-.114-.049s-.043-.076-.043-.129v-.004zm.06.007c0 .038.009.069.027.092s.042.035.072.035c.03 0 .054-.012.072-.035s.027-.057.027-.099c0-.038-.009-.069-.027-.092s-.042-.035-.072-.035c-.029 0-.053.012-.071.035s-.027.056-.027.1zm.642.087.066-.264h.059l-.101.346h-.048l-.084-.262-.082.262h-.048l-.1-.346h.059l.068.259.08-.259h.048l.082.264zm.405.082a.14.14 0 0 1-.008-.036.129.129 0 0 1-.098.043c-.034 0-.062-.01-.084-.029s-.033-.044-.033-.073c0-.036.014-.064.041-.084s.066-.03.116-.03h.057v-.027c0-.021-.006-.037-.018-.049s-.031-.019-.055-.019c-.021 0-.039.005-.053.016s-.021.024-.021.039H5.32c0-.017.006-.034.018-.05s.029-.029.05-.038a.174.174 0 0 1 .069-.014c.04 0 .071.01.094.03s.034.047.035.082v.159c0 .032.004.057.012.076v.005h-.062zm-.098-.045c.019 0 .036-.005.053-.014s.029-.022.036-.037v-.071H5.48c-.072 0-.109.021-.109.064 0 .019.006.033.019.043s.028.016.048.016zm.233-.131c0-.053.013-.096.038-.128s.058-.049.099-.049a.12.12 0 0 1 .096.042v-.18h.059v.491h-.054l-.003-.037a.121.121 0 0 1-.099.043c-.04 0-.073-.016-.098-.049s-.038-.076-.038-.128v-.004zm.059.007c0 .039.008.07.024.092s.039.033.067.033a.087.087 0 0 0 .082-.05v-.159a.087.087 0 0 0-.081-.049c-.029 0-.052.011-.068.034s-.024.055-.024.099zm.387.12h.202v.048h-.274v-.043l.191-.253h-.188v-.049h.262v.042l-.193.256zm.093-.442h.072l-.086.094h-.048l.062-.094zm.431.061v.084h.064v.046H6.64v.214c0 .014.003.024.009.031s.016.01.029.01a.116.116 0 0 0 .028-.004v.048a.186.186 0 0 1-.045.006c-.026 0-.046-.008-.06-.024s-.02-.039-.02-.068v-.214h-.063v-.046h.063v-.084h.059zm.284.436c-.047 0-.085-.015-.114-.046s-.044-.072-.044-.124v-.011c0-.034.006-.065.02-.092s.032-.048.055-.063a.142.142 0 0 1 .077-.023c.045 0 .08.015.105.044s.037.072.037.127v.025h-.234c.001.034.011.062.03.083s.043.031.073.031c.021 0 .039-.004.053-.013s.027-.02.038-.034l.036.028a.146.146 0 0 1-.13.067zm-.007-.31c-.024 0-.044.009-.06.026s-.026.042-.03.073H7v-.004c-.002-.03-.01-.053-.024-.07s-.034-.025-.059-.025zm.314.144-.037.039v.121h-.059v-.491h.059v.297l.032-.038.108-.114h.072l-.135.144.15.201h-.069l-.12-.16zm.442.068c0-.016-.006-.028-.018-.037s-.033-.017-.063-.023c-.03-.006-.054-.014-.071-.023s-.03-.02-.039-.032a.078.078 0 0 1-.012-.044c0-.028.012-.052.036-.072s.055-.029.092-.029c.039 0 .071.01.095.03s.037.046.037.078h-.059c0-.016-.007-.03-.021-.042s-.031-.018-.052-.018c-.022 0-.038.005-.05.014s-.018.022-.018.037c0 .014.006.025.017.032s.032.014.061.021c.03.007.054.015.072.024s.032.02.041.033a.079.079 0 0 1 .013.047c0 .031-.012.056-.037.074s-.057.028-.096.028c-.028 0-.052-.005-.074-.015s-.038-.023-.05-.041a.101.101 0 0 1-.018-.057h.059c.001.02.009.036.024.047s.035.017.059.017c.022 0 .04-.004.054-.013s.02-.021.02-.036zm.223-.338v.084h.065v.046h-.065v.214c0 .014.003.024.009.031s.016.01.029.01a.116.116 0 0 0 .028-.004v.048a.186.186 0 0 1-.045.006c-.026 0-.046-.008-.06-.024s-.02-.039-.02-.068v-.214h-.063v-.046h.063v-.084h.059z" opacity=".5" style="fill:var(--color3, #757575)"/><path fill="#757575" d="m2.516 15.702-.057.059v.157h-.061v-.465h.061v.23l.207-.23h.074l-.183.205.197.26h-.073l-.165-.216zm.265.04c0-.034.007-.064.02-.091a.15.15 0 0 1 .137-.085c.047 0 .085.016.114.049s.044.076.044.13v.004c0 .034-.006.064-.019.091a.144.144 0 0 1-.137.084c-.047 0-.085-.016-.114-.049s-.043-.076-.043-.129v-.004zm.059.007c0 .038.009.069.026.092s.042.035.072.035c.03 0 .054-.012.072-.035s.027-.057.027-.099c0-.038-.009-.069-.027-.092s-.042-.035-.072-.035c-.029 0-.053.012-.071.035s-.027.056-.027.1zm.392-.176.002.038a.128.128 0 0 1 .103-.045c.048 0 .081.019.099.056.011-.017.026-.03.045-.04s.04-.015.065-.015c.076 0 .114.04.116.12v.232h-.059v-.228c0-.025-.006-.043-.017-.055s-.03-.019-.057-.019c-.022 0-.04.007-.055.02s-.023.031-.025.053v.229H3.39v-.226c0-.05-.025-.075-.074-.075-.039 0-.065.017-.08.05v.252h-.059v-.346h.056zm.668.352c-.047 0-.085-.015-.114-.046s-.044-.072-.044-.124v-.011c0-.034.006-.065.019-.092a.147.147 0 0 1 .132-.086c.045 0 .08.015.105.044s.037.072.037.127v.025h-.234c.001.034.011.062.03.083s.043.031.073.031c.021 0 .039-.004.053-.013s.027-.02.038-.034l.036.028a.146.146 0 0 1-.13.067zm-.007-.31c-.024 0-.044.009-.06.026s-.026.042-.03.073h.173v-.004c-.002-.03-.01-.053-.024-.07s-.034-.025-.059-.025zm.273-.042.002.043a.127.127 0 0 1 .104-.05c.073 0 .11.041.111.124v.228h-.059v-.229c0-.025-.006-.043-.017-.055s-.028-.018-.052-.018c-.019 0-.036.005-.05.015s-.026.024-.034.04v.246h-.059v-.346h.056zm.392-.084v.084h.065v.046h-.065v.214c0 .014.003.024.009.031s.016.01.029.01a.116.116 0 0 0 .028-.004v.048a.186.186 0 0 1-.045.006c-.026 0-.046-.008-.06-.024s-.02-.039-.02-.068v-.214h-.063v-.046h.063v-.084h.059zm.353.429a.14.14 0 0 1-.008-.036.133.133 0 0 1-.098.043c-.034 0-.062-.01-.084-.029s-.033-.044-.033-.073c0-.036.014-.064.041-.084s.066-.03.116-.03h.058v-.027c0-.021-.006-.037-.019-.049s-.031-.019-.055-.019c-.021 0-.039.005-.053.016s-.021.024-.021.039h-.059c0-.017.006-.034.018-.05s.029-.029.05-.038a.174.174 0 0 1 .069-.014c.04 0 .071.01.094.03s.034.047.035.082v.159c0 .032.004.057.012.076v.005h-.062zm-.098-.045c.019 0 .036-.005.053-.014s.029-.022.036-.037v-.071h-.046c-.072 0-.109.021-.109.064 0 .019.006.033.019.043s.028.016.048.016zm.414-.247c-.009-.002-.019-.002-.029-.002-.039 0-.065.017-.079.05v.245H5.06v-.346h.058l.001.04a.091.091 0 0 1 .082-.046c.011 0 .02.001.026.004v.055zm.117.244h.202v.048h-.274v-.043l.191-.253h-.188v-.049h.262v.042l-.193.255z" style="fill:var(--color3, #757575)"/><path fill="#2196f3" d="M3.216 24.204h.654a.11.11 0 0 1 .109.109v.6a.11.11 0 0 1-.109.109h-.654a.11.11 0 0 1-.109-.109v-.6a.11.11 0 0 1 .109-.109z" style="fill:var(--color4, #2196f3)"/><path fill="#fff" d="m3.323 24.627-.004-.004-.004.004-.053.05.004.004.194.185.004-.004.413-.394-.056-.053-.004.004-.357.34-.138-.132z" style="fill:var(--color1, #fff)"/><path fill="#757575" d="M4.841 24.605c0 .053-.009.1-.027.139s-.043.07-.076.091a.208.208 0 0 1-.115.031c-.043 0-.081-.01-.114-.031s-.059-.051-.077-.09a.335.335 0 0 1-.028-.135v-.039c0-.052.009-.098.027-.138s.044-.071.077-.092c.033-.021.071-.032.114-.032s.082.011.115.032.059.051.077.091.027.086.027.139v.034zm-.071-.035c0-.064-.013-.114-.039-.148s-.062-.052-.108-.052c-.045 0-.081.017-.107.052s-.039.082-.04.143v.04c0 .062.013.111.039.147s.062.053.108.053.082-.017.107-.05.038-.082.039-.145v-.04zm.426.182c0-.019-.007-.033-.021-.043s-.038-.019-.073-.027c-.035-.007-.062-.016-.083-.027s-.036-.023-.045-.037a.088.088 0 0 1-.015-.051c0-.033.014-.061.042-.084s.064-.034.107-.034c.046 0 .083.012.111.035s.043.054.043.091h-.069c0-.019-.008-.035-.024-.049s-.036-.02-.06-.02c-.025 0-.045.005-.059.016s-.021.025-.021.043c0 .017.007.029.02.038s.037.017.071.024c.035.008.062.017.084.028s.037.024.047.039c.01.015.016.033.016.055 0 .036-.014.065-.043.087s-.066.032-.112.032c-.032 0-.061-.006-.086-.017s-.044-.027-.059-.048a.118.118 0 0 1-.021-.067h.069c.001.023.01.041.028.055s.04.02.069.02c.026 0 .047-.005.063-.016s.024-.025.024-.042zm-.044-.466h.083l-.1.11h-.056l.072-.11zm.582.478.077-.308h.069l-.117.403h-.056l-.098-.306-.095.306h-.056l-.117-.403h.069l.079.302.094-.302h.056l.096.308zm.315.095H5.98v-.403h.069v.403zm-.075-.511c0-.011.003-.021.01-.028s.017-.012.031-.012.024.004.031.012c.007.008.01.017.01.028s-.003.02-.01.028c-.007.007-.017.011-.031.011s-.024-.004-.031-.011a.039.039 0 0 1-.01-.028zm.458.511a.16.16 0 0 1-.01-.042.155.155 0 0 1-.115.05c-.04 0-.072-.011-.098-.034s-.038-.051-.038-.086c0-.042.016-.075.048-.098s.077-.035.135-.035h.067v-.032c0-.024-.007-.043-.022-.057s-.036-.022-.064-.022c-.025 0-.045.006-.062.019s-.025.027-.025.045h-.069c0-.02.007-.039.021-.058s.034-.034.058-.045a.199.199 0 0 1 .081-.016c.046 0 .083.012.109.035s.04.055.041.096v.186c0 .037.005.066.014.088v.006h-.072zm-.115-.053c.022 0 .042-.006.061-.017s.033-.026.042-.044v-.083h-.054c-.084 0-.127.025-.127.074 0 .022.007.039.022.051s.033.018.056.018zm.287-.152c0-.062.015-.112.044-.149s.068-.057.115-.057a.14.14 0 0 1 .112.048v-.21h.069v.572h-.063l-.003-.043a.14.14 0 0 1-.115.051c-.047 0-.085-.019-.114-.057s-.044-.088-.044-.15v-.005zm.069.007c0 .046.009.081.028.107s.045.039.078.039c.044 0 .076-.02.096-.059v-.185a.101.101 0 0 0-.095-.057c-.034 0-.06.013-.079.039s-.028.065-.028.116zm.563.149c.025 0 .046-.007.064-.022s.029-.034.031-.056h.065c-.001.023-.009.045-.024.066s-.034.038-.059.05a.173.173 0 0 1-.078.019c-.055 0-.099-.018-.131-.055s-.048-.087-.048-.151v-.012c0-.039.007-.074.022-.105s.035-.054.062-.071a.176.176 0 0 1 .096-.025c.045 0 .083.014.113.041s.046.062.048.105h-.065a.094.094 0 0 0-.096-.089c-.035 0-.062.013-.082.038s-.029.061-.029.109v.013c0 .047.01.082.029.107s.046.038.082.038zm.326-.008h.236v.056h-.32v-.051l.222-.296h-.219v-.057h.306v.049l-.225.298zm.585.057a.16.16 0 0 1-.01-.042.155.155 0 0 1-.115.05c-.04 0-.072-.011-.098-.034s-.038-.051-.038-.086c0-.042.016-.075.048-.098s.077-.035.135-.035h.067v-.032c0-.024-.007-.043-.022-.057s-.036-.022-.064-.022c-.025 0-.045.006-.062.019s-.025.027-.025.045h-.069c0-.02.007-.039.021-.058s.034-.034.058-.045a.199.199 0 0 1 .081-.016c.046 0 .083.012.109.035s.04.055.041.096v.186c0 .037.005.066.014.088v.006h-.072zm-.114-.053c.022 0 .042-.006.062-.017s.033-.026.042-.044v-.083h-.054c-.084 0-.127.025-.127.074 0 .022.007.039.022.051s.033.018.056.018zm.368-.351.002.045a.148.148 0 0 1 .12-.052c.056 0 .095.022.115.065.013-.019.031-.035.052-.047s.047-.018.076-.018c.088 0 .133.047.135.14v.27h-.069v-.266c0-.029-.007-.05-.02-.064s-.035-.022-.066-.022a.089.089 0 0 0-.093.084v.268h-.069v-.264c0-.059-.029-.088-.086-.088-.045 0-.076.019-.093.058v.294h-.069v-.403h.065zm.915.404h-.069v-.403h.069v.403zm-.075-.511c0-.011.003-.021.01-.028s.017-.012.031-.012.024.004.031.012c.007.008.01.017.01.028s-.004.02-.01.028c-.007.007-.017.011-.031.011s-.024-.004-.031-.011a.039.039 0 0 1-.01-.028zm.273.454h.236v.056h-.32v-.051l.222-.296h-.219v-.057h.306v.049l-.225.298zm.034-.453c0-.011.003-.021.01-.028s.017-.012.031-.012.024.004.031.012c.007.008.01.017.01.028s-.004.02-.01.028c-.007.007-.017.011-.031.011s-.024-.004-.031-.011a.039.039 0 0 1-.01-.028zm.764.51a.16.16 0 0 1-.01-.042.155.155 0 0 1-.115.05c-.04 0-.072-.011-.098-.034s-.038-.051-.038-.086c0-.042.016-.075.048-.098s.077-.035.135-.035h.067v-.032c0-.024-.007-.043-.022-.057s-.036-.022-.064-.022c-.025 0-.045.006-.062.019s-.025.027-.025.045h-.069c0-.02.007-.039.021-.058s.034-.034.058-.045a.199.199 0 0 1 .081-.016c.046 0 .083.012.109.035s.04.055.041.096v.186c0 .037.005.066.014.088v.006h-.072zm-.115-.053c.022 0 .042-.006.062-.017s.033-.026.042-.044v-.083h-.054c-.085 0-.127.025-.127.074 0 .022.007.039.022.051s.033.018.056.018zm.416-.134-.043.045v.142h-.069v-.572h.069v.346l.037-.044.126-.133h.084l-.157.168.175.235h-.081l-.14-.187zm.452.138c.025 0 .046-.007.065-.022s.029-.034.031-.056h.065c-.001.023-.009.045-.024.066s-.034.038-.059.05a.173.173 0 0 1-.078.019c-.055 0-.099-.018-.131-.055s-.048-.087-.048-.151v-.012c0-.039.007-.074.022-.105s.035-.054.062-.071a.176.176 0 0 1 .096-.025c.045 0 .083.014.113.041s.046.062.048.105h-.065a.094.094 0 0 0-.096-.089c-.035 0-.062.013-.082.038s-.029.061-.029.109v.013c0 .047.01.082.029.107s.046.038.082.038zm.428.056c-.055 0-.099-.018-.133-.054s-.051-.084-.051-.144v-.013c0-.04.008-.076.023-.107s.037-.056.064-.074a.16.16 0 0 1 .089-.027c.052 0 .093.017.122.052s.044.084.044.148v.029h-.273c.001.04.013.072.035.097s.051.036.085.036c.024 0 .045-.005.062-.015s.032-.023.044-.04l.042.033a.17.17 0 0 1-.152.078zm-.009-.361c-.028 0-.051.01-.07.031s-.031.048-.035.085h.202v-.005c-.002-.035-.011-.062-.028-.081s-.04-.029-.069-.029zm.61.156c0 .061-.014.111-.042.148s-.066.056-.114.056a.15.15 0 0 1-.116-.047v.194h-.069v-.558h.063l.003.045a.141.141 0 0 1 .117-.052c.048 0 .087.018.115.055s.042.087.042.152v.006zm-.069-.007c0-.045-.01-.081-.029-.108s-.046-.04-.08-.04a.102.102 0 0 0-.094.056v.193a.101.101 0 0 0 .095.055c.033 0 .059-.013.079-.039s.03-.065.03-.117zm.273-.296v.098h.075v.053h-.075v.25c0 .016.003.028.01.037s.018.012.034.012l.033-.004v.056a.198.198 0 0 1-.053.007c-.031 0-.054-.009-.07-.028s-.023-.045-.023-.079v-.25h-.073v-.053h.073v-.098h.069zm.428.461c-.027.032-.066.047-.118.047-.043 0-.076-.012-.098-.037s-.034-.062-.034-.111v-.262h.069v.26c0 .061.025.092.075.092.053 0 .088-.02.105-.059v-.293h.069v.403h-.066l-.001-.04zm.266-.364v.45c0 .078-.035.116-.105.116a.116.116 0 0 1-.042-.007v-.055a.13.13 0 0 0 .031.003c.015 0 .027-.004.035-.013s.012-.023.012-.043v-.451h.069zm-.076-.107c0-.011.003-.02.01-.028s.017-.012.03-.012c.013 0 .024.004.031.012s.01.017.01.028-.003.02-.01.028-.017.011-.031.011c-.013 0-.024-.004-.03-.011s-.01-.017-.01-.028zm.53.44a.168.168 0 0 1-.069.061l-.022.017c-.028.023-.042.045-.042.066 0 .018.01.027.029.027a.076.076 0 0 0 .037-.01l.005.045c-.017.011-.037.016-.06.016s-.04-.006-.053-.019a.069.069 0 0 1-.019-.051c0-.027.012-.051.037-.074-.054-.001-.098-.019-.131-.055s-.05-.084-.05-.143v-.012c0-.04.008-.076.023-.107s.037-.056.064-.074a.16.16 0 0 1 .089-.027c.052 0 .093.017.122.052s.044.084.044.148v.029h-.273c.001.04.013.072.035.097s.051.036.085.036c.024 0 .045-.005.062-.015s.032-.023.044-.04l.042.033zm-.161-.283c-.028 0-.051.01-.07.031s-.031.048-.035.085h.202v-.005c-.002-.035-.011-.062-.028-.081s-.04-.029-.069-.029zm4.576.354h-.069v-.403h.069v.403zm-.074-.511c0-.011.003-.021.01-.028s.017-.012.031-.012.024.004.031.012c.007.008.01.017.01.028s-.003.02-.01.028c-.007.007-.017.011-.031.011s-.024-.004-.031-.011a.039.039 0 0 1-.01-.028z" style="fill:var(--color3, #757575)"/><path fill="#2196f3" d="M13.976 24.639h-.127v.219h-.072v-.543h.18c.061 0 .108.014.141.042s.05.068.05.122c0 .034-.009.063-.028.088s-.043.044-.076.056l.127.23v.004h-.077l-.118-.219zm-.127-.058h.11c.036 0 .064-.009.085-.028s.032-.043.032-.074c0-.034-.01-.059-.03-.077s-.049-.027-.086-.027h-.11v.206zm.578.285c-.055 0-.099-.018-.133-.054s-.051-.084-.051-.144v-.013c0-.04.008-.076.023-.107s.037-.056.064-.074a.16.16 0 0 1 .089-.027c.052 0 .093.017.122.052s.044.084.044.148v.029h-.273c.001.04.013.072.035.097s.051.036.085.036c.024 0 .045-.005.062-.015s.032-.023.044-.04l.042.033a.17.17 0 0 1-.152.078zm-.009-.361c-.028 0-.051.01-.07.031s-.031.048-.035.085h.202v-.005c-.002-.035-.011-.062-.028-.081s-.04-.029-.069-.029zm.253.149c0-.063.015-.113.044-.15s.068-.056.116-.056c.049 0 .088.017.115.052l.003-.045h.063v.393c0 .052-.016.093-.047.123s-.072.045-.124.045c-.029 0-.057-.006-.085-.019s-.049-.029-.064-.051l.036-.041c.03.037.066.055.108.055.034 0 .06-.009.078-.028s.028-.045.028-.08v-.035c-.028.032-.065.048-.113.048s-.085-.019-.115-.057a.25.25 0 0 1-.044-.155zm.069.007c0 .045.009.081.028.107s.045.039.078.039c.043 0 .075-.02.096-.059v-.184a.102.102 0 0 0-.095-.058c-.034 0-.06.013-.079.039s-.028.065-.028.116zm.648.158c-.027.032-.066.047-.118.047-.043 0-.076-.012-.098-.037s-.034-.062-.034-.111v-.262h.069v.26c0 .061.025.092.075.092.053 0 .088-.02.105-.059v-.293h.069v.403h-.066l-.001-.04zm.27.04h-.069v-.572h.069v.572zm.382 0a.16.16 0 0 1-.01-.042.155.155 0 0 1-.115.05c-.04 0-.072-.011-.098-.034s-.038-.051-.038-.086c0-.042.016-.075.048-.098s.077-.035.135-.035h.067v-.032c0-.024-.007-.043-.022-.057s-.036-.022-.064-.022c-.025 0-.045.006-.062.019s-.025.027-.025.045h-.069c0-.02.007-.039.021-.058s.034-.034.058-.045a.199.199 0 0 1 .081-.016c.046 0 .083.012.109.035s.04.055.041.096v.186c0 .037.005.066.014.088v.006h-.072zm-.114-.053c.022 0 .042-.006.062-.017s.033-.026.042-.044v-.083h-.054c-.084 0-.127.025-.127.074 0 .022.007.039.022.051s.033.018.056.018zm.368-.351.002.045a.148.148 0 0 1 .12-.052c.056 0 .095.022.115.065.013-.019.031-.035.052-.047s.047-.018.076-.018c.088 0 .133.047.135.14v.27h-.069v-.266c0-.029-.007-.05-.02-.064s-.035-.022-.066-.022a.089.089 0 0 0-.093.084v.268h-.069v-.264c0-.059-.029-.088-.086-.088-.045 0-.076.019-.093.058v.294h-.069v-.403h.065zm.702.404h-.069v-.403h.069v.403zm-.074-.511c0-.011.003-.021.01-.028s.017-.012.031-.012.024.004.031.012c.007.008.01.017.01.028s-.003.02-.01.028c-.007.007-.017.011-.031.011s-.024-.004-.031-.011a.039.039 0 0 1-.01-.028zm.273.107.002.051a.146.146 0 0 1 .121-.058c.085 0 .128.048.129.144v.266h-.069v-.267c0-.029-.007-.051-.02-.064s-.033-.021-.061-.021c-.022 0-.042.006-.059.018s-.03.028-.039.047v.287h-.069v-.403h.065zm1.094.191v.212h-.072v-.543h.2c.059 0 .106.015.139.045s.051.07.051.12c0 .053-.017.093-.05.122s-.08.043-.141.043h-.128zm0-.058h.129c.038 0 .068-.009.088-.027s.031-.044.031-.078c0-.032-.01-.058-.031-.078s-.048-.029-.084-.03h-.133v.213zm.399.065c0-.039.008-.075.023-.107s.037-.056.065-.073a.178.178 0 0 1 .095-.026c.055 0 .099.019.133.057s.051.089.051.152v.005c0 .039-.008.075-.023.106s-.036.055-.064.073a.182.182 0 0 1-.096.026c-.055 0-.099-.019-.133-.057s-.051-.088-.051-.151v-.005zm.069.008c0 .045.01.081.031.108s.049.041.083.041c.035 0 .063-.014.083-.041s.031-.066.031-.116c0-.044-.011-.08-.032-.107s-.049-.041-.083-.041-.061.014-.082.041-.031.066-.031.116zm.482.198h-.069v-.572h.069v.572zm.209 0h-.069v-.403h.069v.403zm-.075-.511c0-.011.003-.021.01-.028s.017-.012.031-.012.024.004.031.012c.007.008.01.017.01.028s-.003.02-.01.028c-.007.007-.017.011-.031.011s-.024-.004-.031-.011a.039.039 0 0 1-.01-.028zm.302.01v.098h.075v.053h-.075v.25c0 .016.003.028.01.037s.018.012.034.012l.033-.004v.056a.198.198 0 0 1-.053.007c-.031 0-.054-.009-.07-.028s-.023-.045-.023-.079v-.25h-.073v-.053h.073v-.098h.069zm.311.4.094-.302h.074l-.162.465c-.025.067-.065.101-.12.101l-.013-.001-.026-.005v-.056l.019.001c.023 0 .041-.005.054-.014s.024-.027.032-.052l.015-.041-.144-.399h.075l.101.302zm.365-.086-.043.045v.142h-.069v-.572h.069v.346l.037-.044.126-.133h.084l-.157.168.175.235h-.081l-.14-.187zm.609.116a.168.168 0 0 1-.069.061l-.022.017c-.028.023-.042.045-.042.066 0 .018.01.027.029.027a.076.076 0 0 0 .037-.01l.005.045c-.017.011-.037.016-.06.016s-.04-.006-.053-.019a.069.069 0 0 1-.019-.051c0-.027.012-.051.037-.074-.054-.001-.098-.019-.131-.055s-.05-.084-.05-.143v-.012c0-.04.008-.076.023-.107s.037-.056.064-.074a.16.16 0 0 1 .089-.027c.052 0 .093.017.122.052s.044.084.044.148v.029h-.273c.001.04.013.072.035.097s.051.036.085.036c.024 0 .045-.005.062-.015s.032-.023.044-.04l.042.033zm-.161-.283c-.028 0-.051.01-.07.031s-.031.048-.035.085h.202v-.005c-.002-.035-.011-.062-.028-.081s-.04-.029-.069-.029zm.563.141v.212h-.072v-.543h.2c.059 0 .106.015.139.045s.051.07.051.12c0 .053-.017.093-.05.122s-.08.043-.141.043h-.128zm0-.058h.129c.038 0 .068-.009.088-.027s.031-.044.031-.078c0-.032-.01-.058-.031-.078s-.048-.029-.084-.03h-.133v.213zm.617-.071a.18.18 0 0 0-.034-.003c-.045 0-.076.019-.092.058v.286h-.069v-.403h.067l.001.047a.108.108 0 0 1 .127-.049v.064zm.226.241.094-.302h.074l-.162.465c-.025.067-.065.101-.12.101l-.013-.001-.026-.005v-.056l.019.001c.023 0 .041-.005.054-.014s.024-.027.032-.052l.015-.041-.144-.399h.075l.101.302zm.609.006.078-.308h.069l-.117.403h-.056l-.098-.306-.095.306h-.056l-.117-.403h.069l.079.302.094-.302h.055l.096.308zm.489.095a.16.16 0 0 1-.01-.042.155.155 0 0 1-.115.05c-.04 0-.072-.011-.098-.034s-.038-.051-.038-.086c0-.042.016-.075.048-.098s.077-.035.135-.035h.067v-.032c0-.024-.007-.043-.022-.057s-.036-.022-.064-.022c-.025 0-.045.006-.062.019s-.025.027-.025.045h-.069c0-.02.007-.039.021-.058s.034-.034.058-.045a.199.199 0 0 1 .081-.016c.047 0 .083.012.109.035s.04.055.041.096v.186c0 .037.005.066.014.088v.006h-.072zm-.115-.053c.022 0 .042-.006.061-.017s.033-.026.042-.044v-.083h-.054c-.084 0-.127.025-.127.074 0 .022.007.039.022.051s.033.018.055.018zm.397-.448v.098h.075v.053h-.075v.25c0 .016.003.028.01.037s.018.012.034.012l.033-.004v.056a.198.198 0 0 1-.053.007c-.031 0-.054-.009-.07-.028s-.023-.045-.023-.079v-.25h-.073v-.053h.073v-.098h.069zm.245.097.002.051a.146.146 0 0 1 .121-.058c.085 0 .128.048.129.144v.266h-.069v-.267c0-.029-.007-.051-.02-.064s-.033-.021-.061-.021c-.022 0-.042.006-.059.018s-.03.028-.04.047v.287h-.069v-.403h.065zm.36.198c0-.039.008-.075.023-.107s.037-.056.065-.073a.178.178 0 0 1 .095-.026c.055 0 .099.019.133.057s.051.089.051.152v.005c0 .039-.008.075-.023.106s-.036.055-.064.073a.182.182 0 0 1-.096.026c-.055 0-.099-.019-.133-.057s-.051-.088-.051-.151v-.005zm.07.008c0 .045.01.081.031.108s.049.041.084.041.063-.014.083-.041.031-.066.031-.116c0-.044-.011-.08-.032-.107s-.049-.041-.083-.041-.061.014-.082.041-.031.066-.031.116zm.641.091c0-.019-.007-.033-.021-.043s-.038-.019-.073-.027c-.035-.007-.062-.016-.083-.027s-.036-.023-.045-.037a.088.088 0 0 1-.015-.051c0-.033.014-.061.042-.084s.064-.034.107-.034c.046 0 .083.012.111.035s.043.054.043.091h-.069c0-.019-.008-.035-.024-.049s-.036-.02-.06-.02c-.025 0-.045.005-.059.016s-.021.025-.021.043c0 .017.007.029.02.038s.037.017.071.024c.035.008.062.017.084.028s.037.024.047.039c.01.015.016.033.016.055 0 .036-.014.065-.043.087s-.066.032-.112.032c-.032 0-.061-.006-.086-.017s-.044-.027-.058-.048a.118.118 0 0 1-.021-.067h.069c.001.023.01.041.028.055s.04.02.069.02c.026 0 .047-.005.063-.016s.024-.025.024-.042zm-.043-.466h.083l-.1.11h-.056l.072-.11zm.387.524c.025 0 .046-.007.064-.022s.029-.034.031-.056h.065c-.001.023-.009.045-.024.066s-.034.038-.059.05a.173.173 0 0 1-.078.019c-.055 0-.099-.018-.131-.055s-.048-.087-.048-.151v-.012c0-.039.007-.074.022-.105s.035-.054.062-.071a.176.176 0 0 1 .096-.025c.045 0 .083.014.113.041s.046.062.048.105h-.065a.094.094 0 0 0-.096-.089c-.035 0-.062.013-.082.038s-.029.061-.029.109v.013c0 .047.01.082.029.107s.047.038.082.038zm.335.049h-.069v-.403h.069v.403zm-.074-.511c0-.011.003-.021.01-.028s.017-.012.031-.012c.013 0 .024.004.031.012s.01.017.01.028-.003.02-.01.028c-.007.007-.017.011-.031.011s-.024-.004-.031-.011a.039.039 0 0 1-.01-.028zm.209.474c0-.012.003-.022.01-.03s.018-.012.032-.012c.014 0 .025.004.032.012s.011.018.011.03c0 .011-.004.021-.011.029s-.018.012-.032.012c-.014 0-.025-.004-.032-.012s-.01-.017-.01-.029z" style="fill:var(--color4, #2196f3)"/><path fill="#2196f3" d="M13.714 24.933h3.807v.037h-3.807v-.037zm4.441 0h7.708v.037h-7.708v-.037zM9.322 26.876h10.467c.12 0 .218.098.218.218v2.29c0 .12-.098.218-.218.218H9.322a.219.219 0 0 1-.218-.218v-2.29c0-.12.098-.218.218-.218z" style="fill:var(--color4, #2196f3)"/><path fill="#fff" d="m13.793 28.332.083-.441h.127l-.138.62h-.129l-.101-.415-.101.415h-.129l-.138-.62h.127l.084.44.102-.44h.108l.102.441zm.497.005.085-.287h.132l-.185.532-.01.024c-.028.06-.073.09-.136.09a.215.215 0 0 1-.055-.008v-.093h.019c.023 0 .041-.004.052-.011s.021-.019.027-.035l.014-.038-.161-.462h.132l.086.287zm.567.047c0-.015-.008-.027-.023-.035s-.039-.017-.072-.023c-.11-.023-.164-.07-.164-.14 0-.041.017-.075.051-.102s.079-.041.133-.041c.059 0 .105.014.14.041s.053.063.053.107h-.123c0-.018-.006-.032-.017-.043s-.029-.017-.053-.017c-.021 0-.037.005-.048.014s-.017.021-.017.036c0 .014.006.025.019.033s.035.015.066.022a.671.671 0 0 1 .078.02c.065.024.098.065.098.124 0 .042-.018.076-.054.102s-.083.039-.14.039c-.039 0-.073-.007-.103-.02s-.053-.033-.07-.057a.133.133 0 0 1-.026-.078h.117c.001.022.009.039.024.05s.035.017.06.017c.024 0 .041-.004.053-.013s.018-.021.018-.035zm-.047-.527h.134l-.118.132h-.1l.084-.132zm.429.654h-.124v-.654h.124v.654zm.284 0h-.124v-.461h.124v.461zm-.131-.58c0-.018.006-.034.018-.046s.029-.018.051-.018c.021 0 .038.006.05.018s.019.027.019.046-.006.034-.019.046-.029.018-.05.018-.037-.006-.05-.018a.063.063 0 0 1-.019-.046zm.415.119v.486c0 .051-.014.09-.04.118s-.066.043-.117.043a.243.243 0 0 1-.061-.007v-.098a.198.198 0 0 0 .039.004c.037 0 .056-.02.056-.059v-.487h.124zm-.133-.119c0-.018.006-.034.018-.046s.029-.018.051-.018c.021 0 .038.006.05.018s.019.027.019.046-.006.034-.019.046-.029.018-.05.018-.037-.006-.05-.018a.063.063 0 0 1-.019-.046z" style="fill:var(--color1, #fff)"/></symbol></defs></svg>